<svg width="290" height="49" fill="none" xmlns="http://www.w3.org/2000/svg"><path d="M4.56 39V11h11.4c2.987 0 5.6.6 7.84 1.8 2.267 1.173 4.027 2.813 5.28 4.92 1.253 2.107 1.88 4.533 1.88 7.28s-.627 5.173-1.88 7.28-3.013 3.76-5.28 4.96C21.56 38.413 18.947 39 15.96 39H4.56Zm2.96-2.56h8.28c2.48 0 4.627-.48 6.44-1.44 1.84-.987 3.267-2.333 4.28-4.04 1.013-1.733 1.52-3.72 1.52-5.96 0-2.267-.507-4.253-1.52-5.96-1.013-1.707-2.44-3.04-4.28-4-1.813-.987-3.96-1.48-6.44-1.48H7.52v22.88ZM33.807 39V18h2.72v5.72l-.28-1c.587-1.6 1.573-2.813 2.96-3.64 1.386-.853 3.106-1.28 5.16-1.28v2.76h-.32a1.314 1.314 0 0 0-.32-.04c-2.213 0-3.947.68-5.2 2.04-1.254 1.333-1.88 3.24-1.88 5.72V39h-2.84Zm21.267.2c-2.187 0-4.107-.453-5.76-1.36-1.654-.933-2.947-2.2-3.88-3.8-.934-1.627-1.4-3.48-1.4-5.56 0-2.08.44-3.92 1.32-5.52.906-1.6 2.133-2.853 3.68-3.76 1.573-.933 3.333-1.4 5.28-1.4 1.973 0 3.72.453 5.24 1.36 1.546.88 2.76 2.133 3.64 3.76.88 1.6 1.32 3.453 1.32 5.56a2.7 2.7 0 0 1-.04.44v.44h-18.28v-2.12h16.76l-1.12.84c0-1.52-.334-2.867-1-4.04-.64-1.2-1.52-2.133-2.64-2.8-1.12-.667-2.414-1-3.88-1-1.44 0-2.734.333-3.88 1a6.953 6.953 0 0 0-2.68 2.8c-.64 1.2-.96 2.573-.96 4.12v.44c0 1.6.346 3.013 1.04 4.24a7.77 7.77 0 0 0 2.96 2.84c1.28.667 2.733 1 4.36 1 1.28 0 2.466-.227 3.56-.68a7.406 7.406 0 0 0 2.88-2.08l1.6 1.84c-.934 1.12-2.107 1.973-3.52 2.56-1.387.587-2.92.88-4.6.88Zm24.594-.2v-4.64l-.12-.76v-7.76c0-1.787-.506-3.16-1.52-4.12-.986-.96-2.466-1.44-4.44-1.44-1.36 0-2.653.227-3.88.68-1.226.453-2.266 1.053-3.12 1.8l-1.28-2.12c1.067-.907 2.347-1.6 3.84-2.08a14.59 14.59 0 0 1 4.72-.76c2.72 0 4.814.68 6.28 2.04 1.494 1.333 2.24 3.373 2.24 6.12V39h-2.72Zm-7.24.2c-1.573 0-2.946-.253-4.12-.76-1.146-.533-2.026-1.253-2.64-2.16-.613-.933-.92-2-.92-3.2 0-1.093.254-2.08.76-2.96.534-.907 1.387-1.627 2.56-2.16 1.2-.56 2.8-.84 4.8-.84h7.24v2.12h-7.16c-2.026 0-3.44.36-4.24 1.08-.773.72-1.16 1.613-1.16 2.68 0 1.2.467 2.16 1.4 2.88.934.72 2.24 1.08 3.92 1.08 1.6 0 2.974-.36 4.12-1.08 1.174-.747 2.027-1.813 2.56-3.2l.64 1.96c-.533 1.387-1.466 2.493-2.8 3.32-1.306.827-2.96 1.24-4.96 1.24Zm40.714-21.4c1.707 0 3.187.333 4.44 1 1.28.64 2.267 1.627 2.96 2.96.72 1.333 1.08 3.013 1.08 5.04V39h-2.84V27.08c0-2.213-.533-3.88-1.6-5-1.04-1.147-2.52-1.72-4.44-1.72-1.44 0-2.693.307-3.76.92-1.04.587-1.853 1.453-2.44 2.6-.56 1.12-.84 2.48-.84 4.08V39h-2.84V27.08c0-2.213-.533-3.88-1.6-5-1.066-1.147-2.56-1.72-4.48-1.72-1.413 0-2.653.307-3.72.92-1.066.587-1.893 1.453-2.48 2.6-.56 1.12-.84 2.48-.84 4.08V39h-2.84V18h2.72v5.68l-.44-1a7.426 7.426 0 0 1 3.08-3.56c1.44-.88 3.133-1.32 5.08-1.32 2.053 0 3.8.52 5.24 1.56 1.44 1.013 2.374 2.547 2.8 4.6l-1.12-.44c.614-1.707 1.694-3.08 3.24-4.12 1.574-1.067 3.454-1.6 5.64-1.6Zm25.742 21.44c-2.107 0-4.053-.347-5.84-1.04-1.787-.72-3.333-1.72-4.64-3a14.022 14.022 0 0 1-3.08-4.52c-.72-1.733-1.08-3.627-1.08-5.68s.36-3.947 1.08-5.68a14.022 14.022 0 0 1 3.08-4.52 13.977 13.977 0 0 1 4.68-2.96c1.787-.72 3.733-1.08 5.84-1.08 2.027 0 3.933.347 5.72 1.04 1.787.667 3.293 1.68 4.52 3.04l-1.88 1.88c-1.147-1.173-2.413-2.013-3.8-2.52-1.387-.533-2.88-.8-4.48-.8-1.68 0-3.24.293-4.68.88a10.78 10.78 0 0 0-3.76 2.44 11.434 11.434 0 0 0-2.52 3.68c-.587 1.387-.88 2.92-.88 4.6 0 1.68.293 3.227.88 4.64a12.043 12.043 0 0 0 2.52 3.68 11.59 11.59 0 0 0 3.76 2.44c1.44.56 3 .84 4.68.84 1.6 0 3.093-.267 4.48-.8 1.387-.533 2.653-1.387 3.8-2.56l1.88 1.88c-1.227 1.36-2.733 2.387-4.52 3.08-1.787.693-3.707 1.04-5.76 1.04Zm20.413-.04c-2.027 0-3.854-.453-5.48-1.36-1.6-.933-2.867-2.2-3.8-3.8-.934-1.627-1.4-3.48-1.4-5.56 0-2.107.466-3.96 1.4-5.56.933-1.6 2.2-2.853 3.8-3.76 1.6-.907 3.426-1.36 5.48-1.36 2.08 0 3.92.453 5.52 1.36a9.727 9.727 0 0 1 3.8 3.76c.933 1.6 1.4 3.453 1.4 5.56 0 2.08-.467 3.933-1.4 5.56-.907 1.6-2.174 2.867-3.8 3.8-1.627.907-3.467 1.36-5.52 1.36Zm0-2.52c1.52 0 2.866-.333 4.04-1a7.36 7.36 0 0 0 2.76-2.88c.693-1.253 1.04-2.693 1.04-4.32 0-1.653-.347-3.093-1.04-4.32-.667-1.227-1.587-2.173-2.76-2.84-1.174-.693-2.507-1.04-4-1.04-1.494 0-2.827.347-4 1.04-1.174.667-2.107 1.613-2.8 2.84-.694 1.227-1.04 2.667-1.04 4.32 0 1.627.346 3.067 1.04 4.32.693 1.227 1.626 2.187 2.8 2.88 1.173.667 2.493 1 3.96 1Zm24.038-18.88c1.706 0 3.2.333 4.48 1 1.306.64 2.32 1.627 3.04 2.96.746 1.333 1.12 3.013 1.12 5.04V39h-2.84V27.08c0-2.213-.56-3.88-1.68-5-1.094-1.147-2.64-1.72-4.64-1.72-1.494 0-2.8.307-3.92.92-1.094.587-1.947 1.453-2.56 2.6-.587 1.12-.88 2.48-.88 4.08V39h-2.84V18h2.72v5.76l-.44-1.08c.666-1.52 1.733-2.707 3.2-3.56 1.466-.88 3.213-1.32 5.24-1.32Zm23.831 0c1.707 0 3.2.333 4.48 1 1.307.64 2.32 1.627 3.04 2.96.747 1.333 1.12 3.013 1.12 5.04V39h-2.84V27.08c0-2.213-.56-3.88-1.68-5-1.093-1.147-2.64-1.72-4.64-1.72-1.493 0-2.8.307-3.92.92-1.093.587-1.947 1.453-2.56 2.6-.587 1.12-.88 2.48-.88 4.08V39h-2.84V18h2.72v5.76l-.44-1.08c.667-1.52 1.733-2.707 3.2-3.56 1.467-.88 3.213-1.32 5.24-1.32Zm22.031 21.4c-2.186 0-4.106-.453-5.76-1.36-1.653-.933-2.946-2.2-3.88-3.8-.933-1.627-1.4-3.48-1.4-5.56 0-2.08.44-3.92 1.32-5.52.907-1.6 2.134-2.853 3.68-3.76 1.574-.933 3.334-1.4 5.28-1.4 1.974 0 3.72.453 5.24 1.36 1.547.88 2.76 2.133 3.64 3.76.88 1.6 1.32 3.453 1.32 5.56 0 .133-.013.28-.04.44v.44h-18.28v-2.12h16.76l-1.12.84c0-1.52-.333-2.867-1-4.04-.64-1.2-1.52-2.133-2.64-2.8-1.12-.667-2.413-1-3.88-1-1.44 0-2.733.333-3.88 1a6.957 6.957 0 0 0-2.68 2.8c-.64 1.2-.96 2.573-.96 4.12v.44c0 1.6.347 3.013 1.04 4.24a7.773 7.773 0 0 0 2.96 2.84c1.28.667 2.734 1 4.36 1 1.28 0 2.467-.227 3.56-.68a7.406 7.406 0 0 0 2.88-2.08l1.6 1.84c-.933 1.12-2.106 1.973-3.52 2.56-1.386.587-2.92.88-4.6.88Zm20.741 0c-2.08 0-3.947-.453-5.6-1.36a10.293 10.293 0 0 1-3.84-3.8c-.934-1.627-1.4-3.48-1.4-5.56 0-2.107.466-3.96 1.4-5.56a9.999 9.999 0 0 1 3.84-3.76c1.653-.907 3.52-1.36 5.6-1.36 1.786 0 3.4.347 4.84 1.04a7.844 7.844 0 0 1 3.4 3.12l-2.12 1.44c-.72-1.067-1.614-1.853-2.68-2.36-1.067-.507-2.227-.76-3.48-.76-1.494 0-2.84.347-4.04 1.04a7.268 7.268 0 0 0-2.84 2.84c-.694 1.227-1.04 2.667-1.04 4.32 0 1.653.346 3.093 1.04 4.32a7.552 7.552 0 0 0 2.84 2.88c1.2.667 2.546 1 4.04 1 1.253 0 2.413-.253 3.48-.76 1.066-.507 1.96-1.28 2.68-2.32l2.12 1.44a8.177 8.177 0 0 1-3.4 3.12c-1.44.693-3.054 1.04-4.84 1.04Zm17.493 0c-1.973 0-3.493-.533-4.56-1.6-1.066-1.067-1.6-2.573-1.6-4.52V13.36h2.84v19.56c0 1.227.307 2.173.92 2.84.64.667 1.547 1 2.72 1 1.254 0 2.294-.36 3.12-1.08l1 2.04c-.56.507-1.24.88-2.04 1.12-.773.24-1.573.36-2.4.36Zm-9.92-18.84V18h13v2.36h-13Zm21.97 18.84c-1.733 0-3.373-.24-4.92-.72-1.546-.507-2.76-1.133-3.64-1.88l1.28-2.24c.854.64 1.947 1.2 3.28 1.68 1.334.453 2.734.68 4.2.68 2 0 3.44-.307 4.32-.92.88-.64 1.32-1.48 1.32-2.52 0-.773-.253-1.373-.76-1.8-.48-.453-1.12-.787-1.92-1-.8-.24-1.693-.44-2.68-.6a57.977 57.977 0 0 1-2.96-.56c-.96-.213-1.84-.52-2.64-.92-.8-.427-1.453-1-1.96-1.72-.48-.72-.72-1.68-.72-2.88 0-1.147.32-2.173.96-3.08.64-.907 1.574-1.613 2.8-2.12 1.254-.533 2.774-.8 4.56-.8 1.36 0 2.72.187 4.08.56 1.36.347 2.48.813 3.36 1.4l-1.24 2.28a9.222 9.222 0 0 0-3-1.36 12.017 12.017 0 0 0-3.2-.44c-1.893 0-3.293.333-4.2 1-.88.64-1.32 1.467-1.32 2.48 0 .8.24 1.427.72 1.88.507.453 1.16.813 1.96 1.08.827.24 1.72.44 2.68.6.987.16 1.96.36 2.92.6.987.213 1.88.52 2.68.92.827.373 1.48.92 1.96 1.64.507.693.76 1.613.76 2.76 0 1.227-.346 2.293-1.04 3.2-.666.88-1.653 1.573-2.96 2.08-1.28.48-2.84.72-4.68.72Z" fill="#FB0"/></svg>