<svg width="31" height="30" viewBox="0 0 31 30" fill="none" xmlns="http://www.w3.org/2000/svg">
<path d="M15.2139 4.5C13.835 4.5 12.4696 4.77159 11.1957 5.29927C9.9218 5.82694 8.76429 6.60036 7.78928 7.57538C6.81426 8.55039 6.04084 9.70791 5.51316 10.9818C4.98549 12.2557 4.7139 13.6211 4.7139 15C4.7139 16.3789 4.98549 17.7443 5.51316 19.0182C6.04084 20.2921 6.81426 21.4496 7.78928 22.4246C8.76429 23.3996 9.9218 24.1731 11.1957 24.7007C12.4696 25.2284 13.835 25.5 15.2139 25.5C16.5928 25.5 17.9582 25.2284 19.2321 24.7007C20.506 24.1731 21.6635 23.3996 22.6385 22.4246C23.6135 21.4496 24.387 20.2921 24.9146 19.0182C25.4423 17.7443 25.7139 16.3789 25.7139 15C25.7139 13.6211 25.4423 12.2557 24.9146 10.9818C24.387 9.70791 23.6135 8.55039 22.6385 7.57538C21.6635 6.60036 20.506 5.82694 19.2321 5.29927C17.9582 4.77159 16.5928 4.5 15.2139 4.5Z" fill="#78A2D2"/>
<path d="M23.385 19.2116C23.3628 19.2116 23.3406 19.2065 23.3193 19.1963C23.2449 19.16 23.2137 19.0703 23.2503 18.9959C23.3097 18.8735 23.3667 18.7502 23.4201 18.626C23.6283 18.1424 23.7942 17.6363 23.913 17.1218C23.9319 17.0408 24.0114 16.9904 24.093 17.0093C24.174 17.0282 24.2241 17.1086 24.2055 17.1893C24.0828 17.7212 23.9112 18.2447 23.6958 18.7448C23.6403 18.8735 23.5818 19.001 23.52 19.1273C23.4942 19.1807 23.4405 19.2116 23.385 19.2116ZM24.3288 16.0181C24.324 16.0181 24.3198 16.0178 24.3153 16.0175C24.2328 16.0103 24.1716 15.9371 24.1791 15.8549C24.1965 15.6608 24.2076 15.4661 24.2124 15.2717C24.243 14.0642 24.0357 12.8831 23.5971 11.7608C23.5668 11.6837 23.6049 11.5967 23.6823 11.5664C23.7594 11.5361 23.8464 11.5745 23.8764 11.6516C24.3297 12.8114 24.5436 14.0318 24.5121 15.2795C24.507 15.4805 24.4953 15.6815 24.4776 15.8816C24.4707 15.9593 24.4056 16.0181 24.3288 16.0181ZM8.5344 8.91835C8.4975 8.91835 8.4609 8.90515 8.4321 8.87785C8.3715 8.82145 8.3685 8.72665 8.4249 8.66575C9.9396 7.04335 11.9895 6.01855 14.1963 5.78035C14.2794 5.77345 14.3526 5.83105 14.3616 5.91325C14.3706 5.99545 14.3109 6.06954 14.2287 6.07854C12.0933 6.30894 10.11 7.30045 8.6445 8.87035C8.6145 8.90245 8.5746 8.91835 8.5344 8.91835ZM8.9973 21.8351C8.9604 21.8351 8.9238 21.8216 8.895 21.7946C5.7291 18.8387 5.0079 14.1566 7.1415 10.4081C7.1823 10.3361 7.2738 10.3106 7.3461 10.352C7.4181 10.3931 7.4433 10.4846 7.4022 10.5566C5.3379 14.1836 6.036 18.7148 9.0999 21.5753C9.1605 21.6317 9.1635 21.7268 9.1071 21.7871C9.0774 21.8189 9.0375 21.8351 8.9973 21.8351ZM19.2183 23.4002C19.1625 23.4002 19.1091 23.369 19.0833 23.3153C19.0473 23.2409 19.0785 23.1512 19.1532 23.1152C20.1504 22.6343 21.0432 21.9764 21.8061 21.1595C22.1136 20.8295 22.3983 20.4755 22.6512 20.1065C22.698 20.0384 22.7916 20.021 22.8597 20.0678C22.9278 20.1146 22.9452 20.2079 22.8984 20.2763C22.6371 20.6576 22.3431 21.0233 22.0251 21.3638C21.2367 22.208 20.3145 22.8881 19.2831 23.3849C19.2624 23.3954 19.2402 23.4002 19.2183 23.4002Z" fill="#1F212B"/>
<path d="M13.5639 25.2V17.85H10.8639V15.15H13.5639V12.4587C13.5054 10.044 15.333 7.69472 19.5639 8.99732L19.5552 11.55L18.0849 11.5404C16.9539 11.5404 16.5642 11.9142 16.5642 12.729V15.15H19.797L19.2288 17.85H16.5639V25.2" fill="#FEFDEF"/>
<path d="M16.7139 25.1999H16.4139V17.6999H19.107L19.6119 15.2999H16.4139V12.7289C16.4139 11.7905 16.9137 11.3903 18.0846 11.3903L19.4055 11.399L19.4133 9.10884C17.5722 8.56374 16.0554 8.68914 15.021 9.47214C14.16 10.1243 13.6836 11.2115 13.7136 12.455V15.2999H11.0136V17.6999H13.7136V25.1999H13.4136V17.9999H10.7136V14.9999H13.4136V12.4586C13.3812 11.1209 13.9011 9.94404 14.8398 9.23304C15.6306 8.63424 17.1 8.08224 19.6077 8.85384L19.7139 8.88654L19.7043 11.7008L18.0837 11.69C16.9431 11.69 16.7139 12.0875 16.7139 12.7286V14.9999H19.9815L19.3503 17.9999H16.7139V25.1999Z" fill="#1F212B"/>
<path d="M15.2139 25.7999C9.2586 25.7999 4.4139 20.9553 4.4139 15C4.4139 9.04465 9.2586 4.19995 15.2139 4.19995C21.1692 4.19995 26.0139 9.04465 26.0139 15C26.0139 20.9553 21.1692 25.7999 15.2139 25.7999ZM15.2139 4.79995C9.5895 4.79995 5.0139 9.37555 5.0139 15C5.0139 20.6243 9.5895 25.1999 15.2139 25.1999C20.8383 25.1999 25.4139 20.6243 25.4139 15C25.4139 9.37555 20.8383 4.79995 15.2139 4.79995Z" fill="#1F212B"/>
</svg>
