<svg width="29" height="28" viewBox="0 0 29 28" fill="none" xmlns="http://www.w3.org/2000/svg">
<path d="M23.8647 12.32H14.2139V15.96H20.0536C19.2346 18.4007 16.9305 20.16 14.2139 20.16C10.8119 20.16 8.05389 17.402 8.05389 14C8.05389 10.598 10.8119 7.83995 14.2139 7.83995C15.5576 7.83995 16.7997 8.27143 17.8122 9.00167L20.4075 6.40635C18.7194 5.02763 16.5634 4.19995 14.2139 4.19995C8.80149 4.19995 4.41389 8.58755 4.41389 14C4.41389 19.4124 8.80149 23.8 14.2139 23.8C19.6263 23.8 24.0139 19.4124 24.0139 14C24.0139 13.4265 23.9596 12.8662 23.8647 12.32Z" fill="#F9E65C"/>
<path d="M14.2139 15.9599H20.0536C19.612 17.2757 18.7365 18.3901 17.5999 19.1407L20.3635 21.6283C22.589 19.8318 24.0139 17.0827 24.0139 13.9999C24.0139 13.4265 23.9596 12.8662 23.8647 12.3199H14.2139V15.9599Z" fill="#78A2D2"/>
<path d="M17.5999 19.1408C16.6281 19.7828 15.4661 20.16 14.2139 20.16C11.6947 20.16 9.53034 18.6472 8.57554 16.4811L5.48294 18.4492C7.10442 21.6244 10.4039 23.8 14.2139 23.8C16.5435 23.8 18.6819 22.9858 20.3635 21.6283L17.5999 19.1408Z" fill="#60BE92"/>
<path d="M8.52346 11.6393C9.4497 9.40879 11.6483 7.83995 14.2139 7.83995C15.5576 7.83995 16.7997 8.27143 17.8122 9.00167L20.4075 6.40635C18.7194 5.02763 16.5634 4.19995 14.2139 4.19995C10.3577 4.19995 7.02322 6.42819 5.42358 9.66667L8.52346 11.6393Z" fill="#F15B6C"/>
<path d="M14.2139 24.08C8.65562 24.08 4.1339 19.5583 4.1339 14C4.1339 8.44176 8.65562 3.92004 14.2139 3.92004C16.5298 3.92004 18.7927 4.72588 20.5847 6.18944C20.6461 6.23956 20.6833 6.3132 20.6872 6.39216C20.6911 6.47112 20.6615 6.5484 20.6055 6.60412L18.0101 9.19944C17.913 9.2966 17.7595 9.30892 17.6484 9.22856C16.6429 8.50336 15.4551 8.12004 14.2139 8.12004C10.9718 8.12004 8.3339 10.7576 8.3339 14C8.3339 17.2424 10.9718 19.88 14.2139 19.88C16.6115 19.88 18.7488 18.433 19.6507 16.24H14.2139C14.0591 16.24 13.9339 16.1146 13.9339 15.96V12.32C13.9339 12.1655 14.0591 12.04 14.2139 12.04H23.8647C24.0007 12.04 24.1172 12.138 24.1405 12.2722C24.2421 12.8582 24.2939 13.4398 24.2939 14C24.2939 19.5583 19.7722 24.08 14.2139 24.08ZM14.2139 4.48004C8.96446 4.48004 4.6939 8.7506 4.6939 14C4.6939 19.2495 8.96446 23.52 14.2139 23.52C19.4633 23.52 23.7339 19.2495 23.7339 14C23.7339 13.5453 23.6978 13.0755 23.6264 12.6H14.4939V15.68H20.0536C20.1437 15.68 20.2283 15.7234 20.2809 15.7965C20.3336 15.8696 20.3479 15.9637 20.3193 16.0491C19.4379 18.6755 16.9845 20.44 14.2139 20.44C10.6627 20.44 7.7739 17.551 7.7739 14C7.7739 10.4491 10.6627 7.56004 14.2139 7.56004C15.4932 7.56004 16.721 7.93216 17.7797 8.63832L19.9869 6.43108C18.3355 5.1708 16.2977 4.48004 14.2139 4.48004Z" fill="#1F212B"/>
<path d="M20.2339 21.84C20.2006 21.84 20.167 21.8282 20.1401 21.8041L19.0201 20.7961C18.9627 20.7443 18.9579 20.6559 19.0097 20.5985C19.0621 20.5411 19.1503 20.5366 19.2077 20.5881L20.3277 21.5961C20.3851 21.6479 20.3899 21.7364 20.3381 21.7938C20.3101 21.8243 20.2723 21.84 20.2339 21.84Z" fill="#1F212B"/>
<path d="M18.5539 20.328C18.5206 20.328 18.487 20.3162 18.4601 20.2921L17.9625 19.8441C17.9051 19.7923 17.9004 19.7038 17.9522 19.6464C18.0045 19.589 18.0927 19.5846 18.1501 19.6361L18.6477 20.0841C18.7051 20.1359 18.7099 20.2244 18.6581 20.2818C18.6301 20.3123 18.5923 20.328 18.5539 20.328Z" fill="#1F212B"/>
<path d="M8.03401 16.8C7.98781 16.8 7.94273 16.7771 7.91585 16.7353C7.87441 16.6701 7.89373 16.5836 7.95869 16.5421L8.39857 16.2621C8.46325 16.2213 8.55005 16.2397 8.59177 16.305C8.63321 16.3702 8.61389 16.4567 8.54893 16.4982L8.10905 16.7782C8.08581 16.793 8.05977 16.8 8.03401 16.8Z" fill="#1F212B"/>
<path d="M6.7939 17.5891C6.7477 17.5891 6.70262 17.5661 6.67574 17.5244C6.6343 17.4591 6.65362 17.3726 6.71858 17.3312L7.27858 16.9747C7.34326 16.9339 7.43006 16.9521 7.47178 17.0176C7.51322 17.0828 7.4939 17.1693 7.42894 17.2108L6.86894 17.5672C6.84598 17.5821 6.81994 17.5891 6.7939 17.5891Z" fill="#1F212B"/>
<path d="M5.39391 18.48C5.34771 18.48 5.30262 18.457 5.27574 18.4153C5.2343 18.35 5.25363 18.2635 5.31859 18.2221L6.15859 17.6876C6.22299 17.6467 6.31006 17.6652 6.35178 17.7304C6.39322 17.7956 6.3739 17.8822 6.30894 17.9236L5.46895 18.4581C5.44599 18.473 5.41995 18.48 5.39391 18.48Z" fill="#1F212B"/>
<path d="M7.07389 10.691C7.04785 10.691 7.02181 10.684 6.99857 10.6692L5.59857 9.77821C5.53361 9.73677 5.51401 9.64997 5.55573 9.58501C5.59745 9.51977 5.68453 9.50129 5.74893 9.54217L7.14893 10.4331C7.21389 10.4746 7.23349 10.5614 7.19177 10.6263C7.16517 10.668 7.12009 10.691 7.07389 10.691Z" fill="#1F212B"/>
<path d="M7.9139 11.2254C7.88786 11.2254 7.86182 11.2184 7.83858 11.2036L7.55858 11.0255C7.49362 10.9841 7.47402 10.8973 7.51574 10.8323C7.55774 10.7671 7.64454 10.7486 7.70894 10.7895L7.98894 10.9676C8.0539 11.009 8.0735 11.0958 8.03178 11.1608C8.00518 11.2025 7.9601 11.2254 7.9139 11.2254Z" fill="#1F212B"/>
</svg>
